<svg style="fill: #788596;" xmlns="http://www.w3.org/2000/svg" height="40" viewBox="0 -960 960 960" width="40"><path d="M712-129.334h35.334V-236H854v-35.334H747.334v-106.667H712v106.667H605.333V-236H712v106.666Zm16.334 66.667q-79.334 0-135.5-56.5-56.167-56.5-56.167-134.833 0-79.957 56.16-136.312 56.16-56.355 135.84-56.355 79 0 135.5 56.355T920.667-254q0 78.333-56.5 134.833t-135.833 56.5Zm-357-632.667V-762H840v66.666H371.334ZM192.666-160.667q-29.699 0-50.849-20.5-21.15-20.5-21.15-50.499 0-30 20.833-50.834 20.833-20.833 50.833-20.833t50.5 21.15q20.5 21.15 20.5 50.85 0 29.15-20.758 49.908-20.759 20.758-49.909 20.758Zm0-248q-29.699 0-50.849-20.954-21.15-20.954-21.15-50.379 0-29.425 21.15-50.379 21.15-20.954 50.849-20.954 29.15 0 49.909 20.954 20.758 20.954 20.758 50.379 0 29.425-20.758 50.379-20.759 20.954-49.909 20.954ZM192-657.334q-29.425 0-50.379-20.954-20.954-20.954-20.954-50.379 0-29.425 20.954-50.379Q162.575-800 192-800q29.425 0 50.379 20.954 20.954 20.954 20.954 50.379 0 29.425-20.954 50.379-20.954 20.954-50.379 20.954Zm179.334 458.667v-66.666h99.667q-1 17.333.333 34 1.334 16.666 5 32.666h-105Zm0-248v-66.666h357.333q-49.981 0-93.823 17.833-43.843 17.833-77.843 48.833H371.334Z"/></svg>