<svg style="fill: #788596;" xmlns="http://www.w3.org/2000/svg" height="40" viewBox="0 -960 960 960" width="40"><path d="M226.666-813.334v190.667-190.667 666.668-10.834 10.834-666.668Zm0 733.334q-27 0-46.833-19.833T160-146.666v-666.668q0-27 19.833-46.833T226.666-880H574l226 226v209.334q-15.667-6.333-32.333-9.833-16.667-3.5-34.333-4.834v-163.334H540.667v-190.667H226.666v666.668h295.335q9.333 19 21.333 35.666 12 16.667 27.334 31H226.666ZM636-109.334 589.334-156l84-84-84-84L636-370.666l84 84 84-84L850.666-324l-83 84 83 84L804-109.334l-84-83-84 83Z"/></svg>