<svg style="fill: #788596;" xmlns="http://www.w3.org/2000/svg" height="40" viewBox="0 -960 960 960" width="40"><path d="M656.667-137.333 772-252.667V-156h33.333v-153.333H652V-276h96.667L633.334-160.666l23.333 23.333ZM186.666-120q-27.5 0-47.083-19.583T120-186.666v-586.668q0-27.5 19.583-47.083T186.666-840h586.668q27.5 0 47.083 19.583T840-773.334v308.668q-15.667-8.333-32.667-13.833-16.999-5.5-33.999-8.5v-286.335H186.666v586.668h286.668q3.667 18 9.182 34.781 5.515 16.782 13.152 31.885H186.666Zm0-111.333v44.667-586.668 286.335V-490.666-231.333ZM280-280h195.001q3.667-17.667 9.167-34.333 5.5-16.667 13.5-32.333H280V-280Zm0-166.667h310.669q19.999-14.666 41.832-24.332 21.833-9.667 47.499-14.667v-27.667H280v66.666Zm0-166.667h400V-680H280v66.666ZM728.334-40.667q-79.334 0-135.5-56.5-56.167-56.5-56.167-134.833 0-79.956 56.16-136.311 56.16-56.355 135.84-56.355 79 0 135.5 56.355T920.667-232q0 78.333-56.5 134.833t-135.833 56.5Z"/></svg>